<svg xmlns="http://www.w3.org/2000/svg" width="7.374" height="7.374" viewBox="0 0 7.374 7.374">
  <path id="save-svgrepo-com-2" d="M7.276,1.892,5.482.1A.335.335,0,0,0,5.245,0H.335A.335.335,0,0,0,0,.335v6.7a.335.335,0,0,0,.335.335h6.7a.335.335,0,0,0,.335-.335V2.129A.335.335,0,0,0,7.276,1.892ZM2.011.67h.67v.894a.335.335,0,0,0,.67,0V.67h.67V2.458H2.011ZM5.363,5.363H2.011v-.67H5.363ZM2.011,6.7v-.67H5.363V6.7ZM6.7,6.7h-.67V4.358A.335.335,0,0,0,5.7,4.022H1.676a.335.335,0,0,0-.335.335V6.7H.67V.67h.67V2.793a.335.335,0,0,0,.335.335H4.358a.335.335,0,0,0,.335-.335V.67h.414l1.6,1.6Z"/>
</svg>
