<svg xmlns="http://www.w3.org/2000/svg" width="457.109" height="476.2" viewBox="0 0 457.109 476.2">
  <g id="box-svgrepo-com" transform="translate(-5.046 4.5)">
    <g id="Group_51" data-name="Group 51">
      <path id="Path_11" data-name="Path 11" d="M455.146,120.9,363.446,4.6a11.941,11.941,0,0,0-9.4-4.6h-240.8a11.8,11.8,0,0,0-9.4,4.6l-91.7,116.3a11.713,11.713,0,0,0-2.6,7.4V455.2a12.035,12.035,0,0,0,12,12h424.1a12.035,12.035,0,0,0,12-12V128.3A11.074,11.074,0,0,0,455.146,120.9Zm-32.6-2.6h-176.9V24h102.6ZM119.046,24h102.6v94.3H44.746Zm-85.5,419.2V142.3h400.1V443.2Z" stroke="#000" stroke-width="9"/>
      <path id="Path_12" data-name="Path 12" d="M242.246,203.1h0a6.47,6.47,0,0,0-.9-.8c-.2-.1-.3-.2-.5-.3a1.756,1.756,0,0,1-.5-.4l-.6-.3c-.2-.1-.3-.2-.5-.3l-.6-.3c-.2-.1-.3-.2-.5-.2-.2-.1-.4-.1-.6-.2s-.4-.1-.5-.2a1.268,1.268,0,0,0-.6-.1c-.2,0-.4-.1-.6-.1s-.4-.1-.7-.1c-.2,0-.3-.1-.5-.1a9.637,9.637,0,0,0-2.4,0,.9.9,0,0,0-.5.1c-.2,0-.4.1-.7.1-.2,0-.4.1-.6.1s-.4.1-.6.1c-.2.1-.4.1-.5.2-.2.1-.4.1-.6.2s-.3.2-.5.2l-.6.3c-.2.1-.3.2-.5.3l-.6.3a1.756,1.756,0,0,0-.5.4c-.2.1-.3.2-.5.3a5.716,5.716,0,0,0-.8.7l-.1.1-57,57a12,12,0,0,0,8.5,20.5,12.214,12.214,0,0,0,8.5-3.5l36.5-36.5V377.3a12,12,0,0,0,24,0V240.6l36.3,36.3a12.021,12.021,0,0,0,17-17Z" stroke="#000" stroke-width="9"/>
    </g>
  </g>
</svg>
