<svg id="clock-svgrepo-com" xmlns="http://www.w3.org/2000/svg" width="12.474" height="12.474" viewBox="0 0 12.474 12.474">
  <g id="Group_18" data-name="Group 18">
    <g id="Group_17" data-name="Group 17">
      <path id="Path_5" data-name="Path 5" d="M48.031,44.06a.3.3,0,1,1,0-.6h.319A4.583,4.583,0,0,0,47.2,40.712l-.22.22a.3.3,0,0,1-.427-.427l.218-.218a4.583,4.583,0,0,0-2.716-1.12v.319a.3.3,0,1,1-.6,0v-.319a4.583,4.583,0,0,0-2.724,1.128l.237.237a.3.3,0,0,1-.427.427L40.3,40.72a4.583,4.583,0,0,0-1.138,2.736h.356a.3.3,0,1,1,0,.6h-.356a4.583,4.583,0,0,0,1.12,2.716l.255-.255a.3.3,0,0,1,.427.427l-.257.257a4.583,4.583,0,0,0,2.744,1.145v-.356a.3.3,0,1,1,.6,0v.356A4.583,4.583,0,0,0,46.8,47.212l-.238-.238a.3.3,0,0,1,.427-.427l.237.237A4.583,4.583,0,0,0,48.35,44.06Zm-2.242,0H43.758a.3.3,0,0,1-.3-.3V40.835a.3.3,0,1,1,.6,0v2.621h1.729a.3.3,0,1,1,0,.6Z" transform="translate(-37.521 -37.521)"/>
      <path id="Path_6" data-name="Path 6" d="M6.237,0a6.237,6.237,0,1,0,6.237,6.237A6.244,6.244,0,0,0,6.237,0Zm0,11.444a5.207,5.207,0,1,1,5.207-5.207A5.212,5.212,0,0,1,6.237,11.444Z"/>
    </g>
  </g>
</svg>
