<?xml version="1.0" encoding="utf-8"?>
<svg xmlns="http://www.w3.org/2000/svg" xmlns:xlink="http://www.w3.org/1999/xlink" style="margin: auto; background-image: none; display: block; shape-rendering: auto;" width="251px" height="251px" viewBox="0 0 100 100" preserveAspectRatio="xMidYMid">
<g transform="translate(50 50)">
<g>
<animateTransform attributeName="transform" type="rotate" values="0;45" keyTimes="0;1" dur="0.2958579881656805s" repeatCount="indefinite"></animateTransform><path d="M29.17190429162964 -7 L36.171904291629644 -7 L36.171904291629644 7 L29.17190429162964 7 A30 30 0 0 1 25.5773988130421 15.677903876430435 L25.5773988130421 15.677903876430435 L30.527146281347935 20.627651344736265 L20.62765134473627 30.52714628134793 L15.677903876430438 25.5773988130421 A30 30 0 0 1 7.000000000000002 29.17190429162964 L7.000000000000002 29.17190429162964 L7.000000000000002 36.171904291629644 L-6.999999999999998 36.171904291629644 L-6.999999999999998 29.17190429162964 A30 30 0 0 1 -15.677903876430427 25.577398813042105 L-15.677903876430427 25.577398813042105 L-20.627651344736257 30.52714628134794 L-30.52714628134794 20.627651344736268 L-25.577398813042105 15.677903876430435 A30 30 0 0 1 -29.17190429162964 7.00000000000001 L-29.17190429162964 7.00000000000001 L-36.171904291629644 7.000000000000011 L-36.171904291629644 -7.000000000000002 L-29.17190429162964 -7.000000000000003 A30 30 0 0 1 -25.57739881304211 -15.677903876430427 L-25.57739881304211 -15.677903876430427 L-30.527146281347942 -20.627651344736257 L-20.627651344736268 -30.52714628134793 L-15.677903876430435 -25.5773988130421 A30 30 0 0 1 -7.0000000000000115 -29.171904291629637 L-7.0000000000000115 -29.171904291629637 L-7.000000000000012 -36.17190429162964 L7 -36.171904291629644 L7.000000000000001 -29.17190429162964 A30 30 0 0 1 15.677903876430424 -25.57739881304211 L15.677903876430424 -25.57739881304211 L20.627651344736257 -30.527146281347942 L30.52714628134793 -20.627651344736268 L25.5773988130421 -15.677903876430435 A30 30 0 0 1 29.171904291629637 -7.000000000000013 M0 -20A20 20 0 1 0 0 20 A20 20 0 1 0 0 -20" fill="#526ddd"></path></g></g>
<!-- [ldio] generated by https://loading.io/ --></svg>