<svg xmlns="http://www.w3.org/2000/svg" width="14.511" height="15.265" viewBox="0 0 14.511 15.265">
  <path id="water-svgrepo-com" d="M15.613,12.521a1.79,1.79,0,1,0,3.027,0l-1.027-1.734a.564.564,0,0,0-.97,0ZM5.577,3.261H9.264V3.184a.564.564,0,0,1,.564-.564h.845V2.132H8.367A.564.564,0,0,1,7.8,1.568v-.32A1.25,1.25,0,0,1,9.052,0h5.134a1.25,1.25,0,0,1,1.248,1.248v.32a.564.564,0,0,1-.564.564H12.565V2.62h.845a.564.564,0,0,1,.564.564v.077h1.5a3.707,3.707,0,0,1,3.7,3.7V8.859a.564.564,0,0,1-.22,1.083H15.622a.564.564,0,0,1-.255-1.066V7.6a.6.6,0,0,0-.6-.6h-.79V7.19a.564.564,0,0,1-.564.564H9.828a.564.564,0,0,1-.564-.564V7.165H5.577A.564.564,0,0,1,5.013,6.6V3.825A.564.564,0,0,1,5.577,3.261Z" transform="translate(-5.013)"/>
</svg>
