<svg xmlns="http://www.w3.org/2000/svg" width="5.667" height="7.072" viewBox="0 0 5.667 7.072">
  <g id="pause-svgrepo-com" transform="translate(-4.729)">
    <path id="Path_8" data-name="Path 8" d="M6.7,6.087a.985.985,0,0,1-.985.985h0a.985.985,0,0,1-.985-.985V.985A.985.985,0,0,1,5.714,0h0A.985.985,0,0,1,6.7.985Z" transform="translate(0 0)"/>
    <path id="Path_9" data-name="Path 9" d="M31.585,6.087a.985.985,0,0,1-.985.985h0a.985.985,0,0,1-.985-.985V.985A.985.985,0,0,1,30.6,0h0a.985.985,0,0,1,.985.985Z" transform="translate(-21.189 0)"/>
  </g>
</svg>
