<svg xmlns="http://www.w3.org/2000/svg" width="8.124" height="9.071" viewBox="0 0 8.124 9.071">
  <g id="stopwatch" transform="translate(-26.034 0.25)">
    <g id="Layer_8_46_" transform="translate(26.289)">
      <path id="Path_10" data-name="Path 10" d="M33.028,2.332l.252-.252a.189.189,0,0,0,.214-.038L33.539,2a.19.19,0,0,0,0-.269l-.323-.323a.19.19,0,0,0-.269,0l-.045.045a.19.19,0,0,0,0,.269l.01.01-.233.233A3.79,3.79,0,0,0,30.444.97V.737h.034a.316.316,0,0,0,.316-.316V.316A.316.316,0,0,0,30.477,0h-.759A.316.316,0,0,0,29.4.316V.421a.316.316,0,0,0,.316.316h.034V.969a3.809,3.809,0,0,0,.136,7.6c.071,0,.142.006.213.006a3.806,3.806,0,0,0,2.927-6.239Zm.366,2.611a3.3,3.3,0,1,1-3.3-3.483c.061,0,.123,0,.185.005A3.3,3.3,0,0,1,33.394,4.944ZM30.7,4.762a.6.6,0,1,1-.778-.579V2.362a.173.173,0,1,1,.346,0V4.182A.6.6,0,0,1,30.7,4.762Z" transform="translate(-26.289)" stroke="#000" stroke-width="0.5"/>
    </g>
  </g>
</svg>
