<svg id="Group_7" data-name="Group 7" xmlns="http://www.w3.org/2000/svg" width="8.098" height="9.205" viewBox="0 0 8.098 9.205">
  <path id="Path_1" data-name="Path 1" d="M34.684,1.146h-1.8a1.272,1.272,0,0,0-2.532,0h-1.8a.981.981,0,0,0-.049,1.96V8.021a1.186,1.186,0,0,0,1.185,1.185h3.865a1.186,1.186,0,0,0,1.185-1.185V3.106a.981.981,0,0,0-.049-1.96ZM31.616.6a.671.671,0,0,1,.658.543H30.958A.671.671,0,0,1,31.616.6Zm2.515,7.418a.583.583,0,0,1-.582.582H29.684a.583.583,0,0,1-.582-.582V3.107h5.029Zm.554-5.516H28.548a.379.379,0,0,1,0-.757h6.137a.379.379,0,0,1,0,.757Z" transform="translate(-27.567)"/>
  <path id="Path_2" data-name="Path 2" d="M214.55,192.708a.3.3,0,0,0,.3-.3v-3.487a.3.3,0,1,0-.6,0v3.487A.3.3,0,0,0,214.55,192.708Z" transform="translate(-210.501 -184.831)"/>
  <path id="Path_3" data-name="Path 3" d="M291.972,192.708a.3.3,0,0,0,.3-.3v-3.487a.3.3,0,0,0-.6,0v3.487A.3.3,0,0,0,291.972,192.708Z" transform="translate(-286.369 -184.831)"/>
  <path id="Path_4" data-name="Path 4" d="M137.129,192.708a.3.3,0,0,0,.3-.3v-3.487a.3.3,0,0,0-.6,0v3.487A.3.3,0,0,0,137.129,192.708Z" transform="translate(-134.634 -184.831)"/>
</svg>
