<svg id="valve-svgrepo-com" xmlns="http://www.w3.org/2000/svg" width="11.011" height="11.011" viewBox="0 0 11.011 11.011">
  <g id="Group_19" data-name="Group 19">
    <path id="Path_7" data-name="Path 7" d="M10.553,6.423H9.635V5.965a.458.458,0,0,0-.459-.459H7.8a.458.458,0,0,0-.459.459v.459H6.882V4.588a.458.458,0,0,0-.459-.459H5.965V3.212H7.8a.458.458,0,0,0,.459-.459V.459A.458.458,0,0,0,7.8,0H5.965V2.753a.459.459,0,1,0-.918,0V0H3.212a.458.458,0,0,0-.459.459V2.753a.458.458,0,0,0,.459.459H5.047v.918H4.588a.458.458,0,0,0-.459.459V6.423H3.67V5.965a.458.458,0,0,0-.459-.459H1.835a.458.458,0,0,0-.459.459v.459H.459A.458.458,0,0,0,0,6.882V9.635a.458.458,0,0,0,.459.459h.918v.459a.458.458,0,0,0,.459.459H3.212a.458.458,0,0,0,.459-.459v-.459h3.67v.459a.458.458,0,0,0,.459.459H9.176a.458.458,0,0,0,.459-.459v-.459h.918a.458.458,0,0,0,.459-.459V6.882A.458.458,0,0,0,10.553,6.423Zm-7.8.459v3.212H2.294V6.423h.459Zm5.965,0v3.212H8.259V6.423h.459Z"/>
  </g>
</svg>
